<svg width="72" height="72" viewBox="0 0 72 72" fill="none" xmlns="http://www.w3.org/2000/svg">
<circle cx="35.8617" cy="36.0729" r="35.8299" fill="#D7EBDF"/>
<path fill-rule="evenodd" clip-rule="evenodd" d="M41.3455 19.567L49.8909 28.5545C50.1169 28.793 50.2435 29.1099 50.2435 29.4403V45.0935C50.2435 49.376 46.7838 52.9925 42.6866 52.9925H29.2123C24.8755 52.9925 21.48 49.5225 21.48 45.0935V40.8246C21.48 40.1194 22.0467 39.547 22.7451 39.547C23.4434 39.547 24.0102 40.1194 24.0102 40.8246V45.0935C24.0102 48.1393 26.2452 50.4373 29.2123 50.4373H42.6866C45.4124 50.4373 47.7132 47.9894 47.7132 45.0935V29.9531L41.2544 23.1597V25.3878C41.2544 27.0981 42.6326 28.4932 44.3261 28.4966C45.0245 28.4983 45.5896 29.0707 45.5879 29.7776C45.5862 30.4812 45.0211 31.0518 44.3228 31.0518H44.3211C41.2359 31.045 38.7242 28.5051 38.7242 25.3878V21.7287H29.2123C26.392 21.7287 24.0102 24.0523 24.0102 26.8034L24.0102 33.8796C24.0102 34.5848 23.4434 35.1572 22.7451 35.1572C22.0467 35.1572 21.48 34.5848 21.48 33.8796L21.48 26.8034C21.48 22.6674 25.0206 19.1735 29.2123 19.1735H39.8915C39.9077 19.172 39.9225 19.1676 39.937 19.1633C39.9542 19.1581 39.971 19.1531 39.9893 19.1531C40.0091 19.1531 40.0267 19.1584 40.0443 19.1637C40.0583 19.1679 40.0722 19.172 40.0872 19.1735H40.433C40.7771 19.1735 41.106 19.3149 41.3455 19.567ZM36.4765 43.0257C36.4765 43.7309 35.9097 44.3033 35.2114 44.3033C34.513 44.3033 33.9462 43.7309 33.9462 43.0257V34.9206L31.3199 37.5865C30.8273 38.0873 30.0261 38.0873 29.5302 37.5899C29.0359 37.0925 29.0343 36.2834 29.5268 35.7826L34.3157 30.926V30.9243C34.5451 30.6943 34.8622 30.5512 35.2114 30.5512C35.5622 30.5512 35.8776 30.6943 36.107 30.9243V30.926L40.8959 35.7826C41.3884 36.2834 41.3868 37.0925 40.8925 37.5899C40.6446 37.8369 40.3224 37.9613 39.9985 37.9613C39.6746 37.9613 39.3508 37.8369 39.1028 37.5865L36.4765 34.9206V43.0257Z" fill="#4CD080"/>
</svg>
