<svg width="48" height="48" viewBox="0 0 48 48" fill="none" xmlns="http://www.w3.org/2000/svg">
<circle cx="24" cy="24" r="24" fill="#4CD080" fill-opacity="0.1"/>
<path d="M17.5 15.5V30.65C17.5 31.2 17.95 31.65 18.5 31.65H30.5C31.05 31.65 31.5 31.2 31.5 30.65V18.59C29.9 16.99 29.01 16.1 27.41 14.5H18.5C17.95 14.5 17.5 14.95 17.5 15.5Z" fill="#4CD080"/>
<path d="M20 28.88L21.75 27.53C21.93 27.39 22.18 27.38 22.37 27.51L23.86 28.54L26.34 26.49C26.53 26.34 26.79 26.33 26.99 26.47L28.99 27.92" stroke="white" stroke-miterlimit="10" stroke-linecap="round" stroke-linejoin="round"/>
<path d="M27.4102 14.5V17.6C27.4102 18.15 27.8602 18.6 28.4102 18.6H31.5002" stroke="white" stroke-miterlimit="10" stroke-linecap="round" stroke-linejoin="round"/>
<path d="M20.3901 18.6H24.0201" stroke="white" stroke-miterlimit="10" stroke-linecap="round" stroke-linejoin="round"/>
<path d="M20.3901 21.84H28.4301" stroke="white" stroke-miterlimit="10" stroke-linecap="round" stroke-linejoin="round"/>
</svg>
