<svg width="18" height="10" viewBox="0 0 18 10" fill="none" xmlns="http://www.w3.org/2000/svg">
<path d="M12.18 6.2375C11.3025 5.8475 10.2225 5.5625 9 5.5625C7.7775 5.5625 6.6975 5.855 5.82 6.2375C5.01 6.5975 4.5 7.4075 4.5 8.2925V9.5H13.5V8.2925C13.5 7.4075 12.99 6.5975 12.18 6.2375ZM6.0525 8C6.12 7.8275 6.255 7.685 6.42 7.61C7.245 7.2425 8.115 7.0625 8.9925 7.0625C9.8775 7.0625 10.74 7.25 11.565 7.61C11.7375 7.685 11.865 7.8275 11.9325 8H6.0525Z" fill="white"/>
<path d="M0.915 6.935C0.36 7.175 0 7.715 0 8.3225V9.5H3.375V8.2925C3.375 7.67 3.5475 7.085 3.8475 6.575C3.57 6.53 3.2925 6.5 3 6.5C2.2575 6.5 1.5525 6.6575 0.915 6.935Z" fill="white"/>
<path d="M17.085 6.935C16.4475 6.6575 15.7425 6.5 15 6.5C14.7075 6.5 14.43 6.53 14.1525 6.575C14.4525 7.085 14.625 7.67 14.625 8.2925V9.5H18V8.3225C18 7.715 17.64 7.175 17.085 6.935Z" fill="white"/>
<path d="M9 5C10.245 5 11.25 3.995 11.25 2.75C11.25 1.505 10.245 0.5 9 0.5C7.755 0.5 6.75 1.505 6.75 2.75C6.75 3.995 7.755 5 9 5ZM9 2C9.4125 2 9.75 2.3375 9.75 2.75C9.75 3.1625 9.4125 3.5 9 3.5C8.5875 3.5 8.25 3.1625 8.25 2.75C8.25 2.3375 8.5875 2 9 2Z" fill="white"/>
<path d="M2.99992 2.37265L1.12257 4.25L2.99993 6.12735L4.87728 4.25L2.99992 2.37265Z" fill="white"/>
<path d="M15 2.75L13.125 5.75H16.875L15 2.75Z" fill="white"/>
</svg>
