<svg width="17" height="17" viewBox="0 0 17 17" fill="none" xmlns="http://www.w3.org/2000/svg">
<path d="M16.3474 3.14143H5.23197C5.05856 3.14143 4.89225 3.06162 4.76963 2.91954C4.64701 2.77747 4.57812 2.58478 4.57812 2.38386C4.57812 2.18294 4.64701 1.99024 4.76963 1.84817C4.89225 1.7061 5.05856 1.62628 5.23197 1.62628H16.3474C16.5208 1.62628 16.6871 1.7061 16.8097 1.84817C16.9323 1.99024 17.0012 2.18294 17.0012 2.38386C17.0012 2.58478 16.9323 2.77747 16.8097 2.91954C16.6871 3.06162 16.5208 3.14143 16.3474 3.14143Z" fill="white"/>
<path d="M2.61636 3.14143H0.654823C0.481412 3.14143 0.315104 3.06162 0.192484 2.91954C0.0698637 2.77747 0.000976563 2.58478 0.000976562 2.38386C0.000976562 2.18294 0.0698637 1.99024 0.192484 1.84817C0.315104 1.7061 0.481412 1.62628 0.654823 1.62628H2.61636C2.78977 1.62628 2.95608 1.7061 3.0787 1.84817C3.20132 1.99024 3.27021 2.18294 3.27021 2.38386C3.27021 2.58478 3.20132 2.77747 3.0787 2.91954C2.95608 3.06162 2.78977 3.14143 2.61636 3.14143Z" fill="white"/>
<path d="M11.7702 9.20201H0.654823C0.481412 9.20201 0.315104 9.1222 0.192484 8.98012C0.0698637 8.83805 0.000976563 8.64536 0.000976562 8.44443C0.000976562 8.24351 0.0698637 8.05082 0.192484 7.90875C0.315104 7.76668 0.481412 7.68686 0.654823 7.68686H11.7702C11.9436 7.68686 12.1099 7.76668 12.2325 7.90875C12.3552 8.05082 12.4241 8.24351 12.4241 8.44443C12.4241 8.64536 12.3552 8.83805 12.2325 8.98012C12.1099 9.1222 11.9436 9.20201 11.7702 9.20201Z" fill="white"/>
<path d="M5.23175 15.2626H0.654823C0.481412 15.2626 0.315104 15.1828 0.192484 15.0408C0.0698637 14.8987 0.000976563 14.706 0.000976562 14.5051C0.000976562 14.3042 0.0698637 14.1115 0.192484 13.9694C0.315104 13.8273 0.481412 13.7475 0.654823 13.7475H5.23175C5.40516 13.7475 5.57146 13.8273 5.69408 13.9694C5.8167 14.1115 5.88559 14.3042 5.88559 14.5051C5.88559 14.706 5.8167 14.8987 5.69408 15.0408C5.57146 15.1828 5.40516 15.2626 5.23175 15.2626Z" fill="white"/>
<path d="M3.92394 4.65657C3.53599 4.65657 3.15674 4.52328 2.83417 4.27355C2.5116 4.02382 2.26018 3.66886 2.11172 3.25358C1.96325 2.83829 1.92441 2.38132 2.00009 1.94046C2.07578 1.49959 2.2626 1.09463 2.53692 0.776782C2.81125 0.458935 3.16076 0.242479 3.54126 0.154785C3.92177 0.0670917 4.31617 0.112099 4.67459 0.284117C5.03301 0.456134 5.33936 0.747435 5.5549 1.12118C5.77044 1.49493 5.88548 1.93434 5.88548 2.38384C5.88548 2.98661 5.67882 3.56468 5.31096 3.9909C4.9431 4.41712 4.44417 4.65657 3.92394 4.65657ZM3.92394 1.62627C3.79462 1.62627 3.66821 1.6707 3.56068 1.75394C3.45316 1.83719 3.36935 1.9555 3.31987 2.09393C3.27038 2.23236 3.25743 2.38468 3.28266 2.53164C3.30789 2.67859 3.37016 2.81358 3.4616 2.91953C3.55304 3.02548 3.66955 3.09763 3.79638 3.12686C3.92322 3.15609 4.05468 3.14109 4.17416 3.08375C4.29363 3.02641 4.39575 2.92931 4.46759 2.80473C4.53944 2.68015 4.57779 2.53368 4.57779 2.38384C4.57779 2.18292 4.5089 1.99023 4.38628 1.84816C4.26366 1.70608 4.09735 1.62627 3.92394 1.62627Z" fill="white"/>
<path d="M13.0778 10.7172C12.6898 10.7172 12.3106 10.5839 11.988 10.3342C11.6654 10.0844 11.414 9.72947 11.2655 9.31419C11.1171 8.8989 11.0782 8.44193 11.1539 8.00106C11.2296 7.5602 11.4164 7.15524 11.6907 6.83739C11.9651 6.51954 12.3146 6.30309 12.6951 6.21539C13.0756 6.1277 13.47 6.17271 13.8284 6.34472C14.1868 6.51674 14.4932 6.80804 14.7087 7.18179C14.9242 7.55554 15.0393 7.99495 15.0393 8.44445C15.0393 9.04722 14.8326 9.62529 14.4648 10.0515C14.0969 10.4777 13.598 10.7172 13.0778 10.7172ZM13.0778 7.68688C12.9484 7.68688 12.822 7.73131 12.7145 7.81455C12.607 7.89779 12.5232 8.01611 12.4737 8.15454C12.4242 8.29297 12.4112 8.44529 12.4365 8.59225C12.4617 8.7392 12.524 8.87419 12.6154 8.98014C12.7069 9.08609 12.8234 9.15824 12.9502 9.18747C13.077 9.2167 13.2085 9.2017 13.328 9.14436C13.4474 9.08702 13.5496 8.98992 13.6214 8.86534C13.6932 8.74076 13.7316 8.59429 13.7316 8.44445C13.7316 8.24353 13.6627 8.05084 13.5401 7.90876C13.4175 7.76669 13.2512 7.68688 13.0778 7.68688Z" fill="white"/>
<path d="M6.53966 16.7778C6.15171 16.7778 5.77247 16.6445 5.44989 16.3948C5.12732 16.145 4.8759 15.7901 4.72744 15.3748C4.57897 14.9595 4.54013 14.5025 4.61582 14.0617C4.6915 13.6208 4.87832 13.2158 5.15265 12.898C5.42697 12.5802 5.77649 12.3637 6.15699 12.276C6.53749 12.1883 6.93189 12.2333 7.29031 12.4053C7.64874 12.5773 7.95509 12.8687 8.17062 13.2424C8.38616 13.6161 8.5012 14.0556 8.5012 14.5051C8.5012 15.1078 8.29454 15.6859 7.92668 16.1121C7.55882 16.5383 7.0599 16.7778 6.53966 16.7778ZM6.53966 13.7475C6.41035 13.7475 6.28393 13.7919 6.17641 13.8752C6.06888 13.9584 5.98508 14.0767 5.93559 14.2151C5.8861 14.3536 5.87315 14.5059 5.89838 14.6529C5.92361 14.7998 5.98588 14.9348 6.07733 15.0407C6.16877 15.1467 6.28527 15.2188 6.41211 15.2481C6.53894 15.2773 6.67041 15.2623 6.78988 15.205C6.90936 15.1476 7.01147 15.0505 7.08332 14.9259C7.15516 14.8014 7.19351 14.6549 7.19351 14.5051C7.19351 14.3041 7.12462 14.1114 7.002 13.9694C6.87938 13.8273 6.71308 13.7475 6.53966 13.7475Z" fill="white"/>
<path d="M16.3468 9.20201H14.3853C14.2119 9.20201 14.0456 9.1222 13.923 8.98012C13.8003 8.83805 13.7314 8.64536 13.7314 8.44443C13.7314 8.24351 13.8003 8.05082 13.923 7.90875C14.0456 7.76668 14.2119 7.68686 14.3853 7.68686H16.3468C16.5202 7.68686 16.6865 7.76668 16.8092 7.90875C16.9318 8.05082 17.0007 8.24351 17.0007 8.44443C17.0007 8.64536 16.9318 8.83805 16.8092 8.98012C16.6865 9.1222 16.5202 9.20201 16.3468 9.20201Z" fill="white"/>
<path d="M16.3472 15.2626H7.84721C7.67379 15.2626 7.50749 15.1828 7.38487 15.0408C7.26225 14.8987 7.19336 14.706 7.19336 14.5051C7.19336 14.3042 7.26225 14.1115 7.38487 13.9694C7.50749 13.8273 7.67379 13.7475 7.84721 13.7475H16.3472C16.5206 13.7475 16.6869 13.8273 16.8095 13.9694C16.9322 14.1115 17.0011 14.3042 17.0011 14.5051C17.0011 14.706 16.9322 14.8987 16.8095 15.0408C16.6869 15.1828 16.5206 15.2626 16.3472 15.2626Z" fill="white"/>
</svg>
