<svg width="16" height="12" viewBox="0 0 16 12" fill="none" xmlns="http://www.w3.org/2000/svg">
<path d="M5.75 7.3125C3.995 7.3125 0.5 8.19 0.5 9.9375V11.25H11V9.9375C11 8.19 7.505 7.3125 5.75 7.3125ZM2.255 9.75C2.885 9.315 4.4075 8.8125 5.75 8.8125C7.0925 8.8125 8.615 9.315 9.245 9.75H2.255ZM5.75 6C7.1975 6 8.375 4.8225 8.375 3.375C8.375 1.9275 7.1975 0.75 5.75 0.75C4.3025 0.75 3.125 1.9275 3.125 3.375C3.125 4.8225 4.3025 6 5.75 6ZM5.75 2.25C6.3725 2.25 6.875 2.7525 6.875 3.375C6.875 3.9975 6.3725 4.5 5.75 4.5C5.1275 4.5 4.625 3.9975 4.625 3.375C4.625 2.7525 5.1275 2.25 5.75 2.25ZM11.03 7.3575C11.9 7.9875 12.5 8.8275 12.5 9.9375V11.25H15.5V9.9375C15.5 8.4225 12.875 7.56 11.03 7.3575ZM10.25 6C11.6975 6 12.875 4.8225 12.875 3.375C12.875 1.9275 11.6975 0.75 10.25 0.75C9.845 0.75 9.47 0.8475 9.125 1.0125C9.5975 1.68 9.875 2.4975 9.875 3.375C9.875 4.2525 9.5975 5.07 9.125 5.7375C9.47 5.9025 9.845 6 10.25 6Z" fill="white"/>
</svg>
