<svg width="19" height="19" viewBox="0 0 19 19" fill="none" xmlns="http://www.w3.org/2000/svg">
<path d="M18.8906 17.7187L13.3584 12.1816C14.374 10.912 14.9844 9.29584 14.9844 7.53802C14.9844 3.43158 11.6592 0.106384 7.5625 0.106384C3.46094 0.106384 0.140625 3.43646 0.140625 7.53802C0.140625 11.6396 3.46582 14.9697 7.5625 14.9697C9.33008 14.9697 10.9512 14.3495 12.2256 13.3193L17.7529 18.8564L18.8906 17.7187ZM2.86523 12.2451C1.61035 10.9902 0.921875 9.32025 0.921875 7.54291C0.921875 5.76556 1.61523 4.09564 2.86523 2.84076C4.11523 1.58588 5.79004 0.887634 7.5625 0.887634C9.33496 0.887634 11.0049 1.58099 12.2598 2.83588C13.5146 4.09076 14.2031 5.76068 14.2031 7.53802C14.2031 9.31537 13.5098 10.9853 12.2598 12.2402C11.0049 13.4951 9.33496 14.1884 7.5625 14.1884C5.79004 14.1933 4.12012 13.4999 2.86523 12.2451Z" fill="#969696"/>
</svg>
